<svg id="price-7" viewbox="0 0 4628 1000" height="2000" width="9000"><path d="M875 1001Q793 998 740 1009Q693 996 636 944Q582 940 554 868Q533 845 545 760Q530 714 553 690Q594 635 621 578Q685 528 768 519Q749 499 828 581Q804 590 764 621Q733 656 688 690Q669 724 668 754Q688 818 704 845Q710 882 769 904Q797 924 879 919Q916 901 951 880Q978 886 1003 858Q1021 830 1039 787Q1023 747 1016 695Q995 674 932 633Q910 604 844 581Q807 563 745 554Q695 527 657 490Q614 458 590 411Q584 337 585 295Q564 226 605 146Q640 99 729 76Q791 50 852 47Q933 71 1014 98Q1078 125 1091 151Q1133 197 1150 265Q1128 328 1104 376Q1089 433 1047 457Q1018 512 934 520Q929 518 856 462Q932 438 976 404Q997 329 993 301Q1013 218 957 181Q917 166 872 172Q802 170 762 199Q717 214 715 266Q716 315 722 351Q751 399 806 413Q853 438 902 472Q930 492 982 528Q1028 552 1070 579Q1110 619 1159 676Q1166 723 1183 751Q1181 839 1142 907Q1100 961 1029 973Q954 1018 853 1004M1543 1005Q1528 1021 1502 1018Q1461 997 1443 993Q1465 1019 1444 914Q1471 922 1467 903Q1475 915 1489 901Q1609 897 1665 891Q1768 860 1799 805Q1844 760 1840 688Q1861 590 1814 546Q1749 506 1667 513Q1631 529 1565 539Q1522 542 1498 538Q1495 544 1451 543Q1446 546 1498 77Q1483 77 1985 80Q1983 62 1970 203Q1969 207 1592 183Q1595 189 1572 425Q1610 435 1661 425Q1682 403 1732 417Q1848 405 1916 467Q1989 555 2005 681Q1988 722 1980 809Q1928 862 1866 897Q1824 968 1744 998Q1636 1008 1525 1024M2310 1014Q2272 1014 2245 986Q2217 958 2216 917Q2215 886 2230 861Q2245 836 2269 821Q2292 806 2319 806Q2364 806 2388 835Q2412 864 2412 903Q2414 934 2399 959Q2385 984 2361 999Q2337 1014 2310 1014M2594 384Q2594 285 2633 211Q2654 136 2732 89Q2824 46 2930 51Q3034 65 3102 93Q3170 167 3188 247Q3247 327 3230 406Q3241 532 3216 630Q3179 706 3124 803Q3075 873 3003 932Q2915 995 2858 1008Q2791 1051 2718 1082Q2697 1065 2678 994Q2750 950 2841 920Q2899 840 2957 788Q3014 717 3039 638Q3070 561 3071 488Q3075 401 3077 308Q3063 254 3022 216Q2979 175 2895 151Q2862 151 2801 174Q2779 200 2762 247Q2741 289 2726 334Q2738 453 2782 507Q2811 554 2891 576Q2926 560 2938 552Q2976 559 2991 532Q2974 537 3005 633Q3011 651 2961 673Q2908 669 2847 669Q2752 687 2693 649Q2641 589 2612 539Q2599 459 2584 386M3452 383Q3452 290 3476 228Q3513 131 3586 109Q3664 73 3767 72Q3874 53 3945 96Q4030 142 4049 248Q4103 329 4105 413Q4099 517 4073 628Q4021 724 3984 802Q3930 881 3842 936Q3797 971 3724 1031Q3644 1071 3562 1064Q3577 1080 3530 995Q3611 969 3684 916Q3756 841 3829 789Q3868 709 3900 614Q3932 533 3933 471Q3954 395 3935 324Q3897 232 3857 190Q3822 153 3752 174Q3699 176 3678 181Q3622 223 3606 243Q3598 296 3602 343Q3583 446 3638 505Q3681 580 3748 576Q3786 583 3813 573Q3835 544 3846 557Q3850 534 3878 641Q3863 655 3817 669Q3775 692 3710 687Q3623 688 3570 627Q3498 584 3465 520Q3455 463 3440 404" fill="currentColor"></path></svg>