<svg id="price-1" viewbox="0 0 4628 1000" height="2000" width="9000"><path d="M676 1015Q708 921 739 857Q768 802 796 736Q832 653 870 606Q902 530 913 462Q933 376 963 314Q984 244 1032 202Q1032 186 557 181Q574 183 556 81Q552 79 1153 60Q1154 61 1174 120Q1170 123 839 1010Q843 987 697 994M1402 803Q1404 833 1352 758Q1375 713 1413 643Q1422 607 1442 559Q1468 514 1484 446Q1485 446 1526 345Q1532 369 1588 263Q1587 251 1634 164Q1619 171 1676 46Q1665 62 1711 46Q1710 65 1821 99Q1798 163 1759 192Q1752 232 1738 269Q1707 334 1698 375Q1681 399 1664 433Q1643 473 1611 514Q1591 558 1563 610Q1577 622 1507 702Q1529 694 2090 697Q2092 694 2072 832Q2074 809 1387 830M1786 1012Q1789 1007 1807 690Q1785 685 1801 384Q1817 406 1952 412Q1948 411 1932 1013Q1931 991 1785 989M2310 1014Q2272 1014 2245 986Q2217 958 2216 917Q2215 886 2230 861Q2245 836 2269 821Q2292 806 2319 806Q2364 806 2388 835Q2412 864 2412 903Q2414 934 2399 959Q2385 984 2361 999Q2337 1014 2310 1014M2577 405Q2595 302 2623 208Q2675 131 2750 94Q2804 45 2927 68Q3031 53 3088 119Q3155 169 3209 233Q3248 332 3248 425Q3224 538 3214 627Q3177 718 3128 781Q3071 877 2989 919Q2938 976 2860 1008Q2792 1071 2700 1062Q2719 1063 2656 995Q2749 953 2846 913Q2899 863 2971 766Q3010 695 3054 614Q3087 554 3076 470Q3080 375 3059 332Q3057 254 3005 191Q2965 174 2891 167Q2856 174 2822 202Q2770 228 2748 270Q2729 312 2739 361Q2724 466 2764 509Q2827 580 2887 560Q2909 563 2937 547Q2955 561 2976 539Q2974 539 3024 642Q3011 630 2945 651Q2903 668 2855 667Q2769 674 2695 632Q2635 609 2606 541Q2599 455 2595 402M3441 408Q3452 309 3490 213Q3517 155 3603 93Q3661 43 3785 48Q3888 70 3959 123Q4014 168 4066 245Q4082 332 4098 413Q4098 536 4070 624Q4039 720 3983 796Q3926 855 3841 911Q3790 975 3699 1027Q3632 1065 3576 1065Q3572 1084 3515 994Q3626 948 3696 918Q3756 863 3817 786Q3889 715 3897 637Q3925 536 3932 484Q3935 373 3916 327Q3900 255 3877 198Q3836 147 3747 167Q3719 174 3678 198Q3626 203 3619 268Q3602 295 3602 338Q3602 445 3641 526Q3663 562 3749 556Q3790 562 3808 570Q3831 542 3849 539Q3829 540 3858 634Q3843 650 3821 649Q3761 694 3694 674Q3625 695 3555 649Q3497 588 3481 546Q3451 455 3435 386" fill="currentColor"></path></svg>